<svg width="21" height="21" viewBox="0 0 21 21" fill="none" xmlns="http://www.w3.org/2000/svg">
    <path
        d="M20.0667 10.6097C20.0667 11.3158 19.4943 11.8882 18.7883 11.8882H13.0172C12.3111 11.8882 11.7388 12.4605 11.7388 13.1666V18.9377C11.7388 19.6437 11.1664 20.2161 10.4604 20.2161H10.2412C9.53517 20.2161 8.9628 19.6437 8.9628 18.9377V13.1666C8.9628 12.4605 8.39044 11.8882 7.6844 11.8882H1.9133C1.20725 11.8882 0.634888 11.3158 0.634888 10.6097V10.3906C0.634888 9.68455 1.20725 9.11218 1.9133 9.11218H7.68439C8.39044 9.11218 8.9628 8.53982 8.9628 7.83378V2.06268C8.9628 1.35663 9.53517 0.784271 10.2412 0.784271H10.4604C11.1664 0.784271 11.7388 1.35663 11.7388 2.06268V7.83378C11.7388 8.53982 12.3111 9.11218 13.0172 9.11218H18.7883C19.4943 9.11218 20.0667 9.68455 20.0667 10.3906V10.6097Z"
        fill="white" />
</svg>