<svg width="27" height="21" viewBox="0 0 27 21" fill="none" xmlns="http://www.w3.org/2000/svg">
    <path
        d="M26.4108 17.3058C26.8584 17.2125 27.1249 16.7442 26.9025 16.3447C26.4122 15.4641 25.6398 14.6902 24.6516 14.1005C23.379 13.341 21.8197 12.9293 20.2156 12.9293C18.6115 12.9293 17.0523 13.341 15.7796 14.1005C14.7915 14.6902 14.0191 15.4641 13.5287 16.3447C13.3063 16.7442 13.5729 17.2125 14.0205 17.3058C18.1067 18.1574 22.3246 18.1574 26.4108 17.3058Z"
        fill="white" fill-opacity="0.7" />
    <path
        d="M24.2639 7.26169C24.2639 9.4975 22.4514 11.31 20.2156 11.31C17.9798 11.31 16.1673 9.4975 16.1673 7.26169C16.1673 5.02588 17.9798 3.2134 20.2156 3.2134C22.4514 3.2134 24.2639 5.02588 24.2639 7.26169Z"
        fill="white" fill-opacity="0.7" />
    <path
        d="M13.4562 17.3058C13.9038 17.2125 14.1704 16.7442 13.948 16.3447C13.4577 15.4641 12.6852 14.6902 11.6971 14.1005C10.4245 13.341 8.8652 12.9293 7.2611 12.9293C5.65699 12.9293 4.09772 13.341 2.8251 14.1005C1.83696 14.6902 1.06453 15.4641 0.574214 16.3447C0.351803 16.7442 0.618371 17.2125 1.06596 17.3058C5.15215 18.1574 9.37003 18.1574 13.4562 17.3058Z"
        fill="white" fill-opacity="0.7" />
    <path
        d="M11.3094 7.26169C11.3094 9.4975 9.4969 11.31 7.26109 11.31C5.02528 11.31 3.2128 9.4975 3.2128 7.26169C3.2128 5.02588 5.02528 3.2134 7.26109 3.2134C9.4969 3.2134 11.3094 5.02588 11.3094 7.26169Z"
        fill="white" fill-opacity="0.7" />
    <path
        d="M21.6026 19.3737C22.1917 19.2507 22.5425 18.6329 22.2498 18.1059C21.6045 16.9443 20.5878 15.9235 19.2873 15.1456C17.6123 14.1437 15.5601 13.6007 13.4488 13.6007C11.3375 13.6007 9.28528 14.1437 7.61031 15.1456C6.30976 15.9235 5.29312 16.9443 4.64778 18.1059C4.35505 18.6329 4.7059 19.2507 5.295 19.3737C10.6731 20.4971 16.2245 20.4971 21.6026 19.3737Z"
        fill="white" fill-opacity="0.7" />
    <path
        d="M18.777 6.12453C18.777 9.07378 16.3915 11.4646 13.4488 11.4646C10.5061 11.4646 8.12059 9.07378 8.12059 6.12453C8.12059 3.17527 10.5061 0.784424 13.4488 0.784424C16.3915 0.784424 18.777 3.17527 18.777 6.12453Z"
        fill="white" fill-opacity="0.7" />
</svg>