<svg width="21" height="21" viewBox="0 0 21 21" fill="none" xmlns="http://www.w3.org/2000/svg">
    <path
        d="M10.6046 6.61381C11.664 6.61381 12.68 7.02327 13.4291 7.7521C14.1782 8.48093 14.5991 9.46944 14.5991 10.5002C14.5991 11.5309 14.1782 12.5194 13.4291 13.2482C12.68 13.9771 11.664 14.3865 10.6046 14.3865C9.54517 14.3865 8.52916 13.9771 7.78005 13.2482C7.03094 12.5194 6.61009 11.5309 6.61009 10.5002C6.61009 9.46944 7.03094 8.48093 7.78005 7.7521C8.52916 7.02327 9.54517 6.61381 10.6046 6.61381ZM10.6046 8.55699C10.0749 8.55699 9.56687 8.76172 9.19231 9.12614C8.81776 9.49055 8.60733 9.98481 8.60733 10.5002C8.60733 11.0155 8.81776 11.5098 9.19231 11.8742C9.56687 12.2386 10.0749 12.4434 10.6046 12.4434C11.1343 12.4434 11.6423 12.2386 12.0168 11.8742C12.3914 11.5098 12.6018 11.0155 12.6018 10.5002C12.6018 9.98481 12.3914 9.49055 12.0168 9.12614C11.6423 8.76172 11.1343 8.55699 10.6046 8.55699ZM8.60733 20.2161C8.35768 20.2161 8.14797 20.0412 8.10802 19.808L7.88028 18.221C7.79274 17.611 7.36543 17.1064 6.83346 16.7953C6.32323 16.497 5.71606 16.4035 5.16627 16.6205L3.5643 17.2527C3.34461 17.3304 3.07498 17.2527 2.95515 17.039L0.957908 13.6773C0.828087 13.4635 0.888004 13.2012 1.07774 13.0555L2.52371 11.9487C2.93623 11.6329 3.16167 11.1304 3.12325 10.6123C3.11771 10.5377 3.11765 10.4624 3.12302 10.3877C3.16144 9.85361 2.92622 9.33421 2.49819 9.0125L1.07774 7.94489C0.888004 7.79915 0.828087 7.53682 0.957908 7.32307L2.95515 3.96137C3.07498 3.74762 3.34461 3.66018 3.5643 3.74762L5.17579 4.37729C5.72091 4.59028 6.31998 4.50246 6.82585 4.20813C7.36178 3.89631 7.79307 3.38701 7.88115 2.77325L8.10802 1.19234C8.14797 0.959157 8.35768 0.784271 8.60733 0.784271H12.6018C12.8515 0.784271 13.0612 0.959157 13.1011 1.19234L13.328 2.77325C13.4161 3.38701 13.8474 3.89631 14.3833 4.20813C14.8892 4.50246 15.4882 4.59028 16.0334 4.37729L17.6448 3.74762C17.8645 3.66018 18.1342 3.74762 18.254 3.96137L20.2512 7.32307C20.3811 7.53682 20.3211 7.79915 20.1314 7.94489L18.7122 9.01157C18.2834 9.33386 18.0476 9.85184 18.0861 10.3869C18.0915 10.4623 18.0915 10.538 18.0861 10.6135C18.0476 11.1485 18.2834 11.6665 18.7122 11.9888L20.1314 13.0555C20.3211 13.2012 20.3811 13.4635 20.2512 13.6773L18.254 17.039C18.1342 17.2527 17.8645 17.3402 17.6448 17.2527L16.0334 16.6231C15.4882 16.4101 14.8892 16.4979 14.3833 16.7922C13.8474 17.104 13.4161 17.6133 13.328 18.2271L13.1011 19.808C13.0612 20.0412 12.8515 20.2161 12.6018 20.2161H8.60733ZM10.6044 2.72745C10.1744 2.72745 9.80964 3.04295 9.74765 3.46839L9.65186 4.12583C9.55243 4.80818 9.02438 5.33321 8.39079 5.60532C8.01351 5.76736 7.6585 5.96929 7.33191 6.20554C6.76166 6.61806 6.02422 6.80964 5.37528 6.53718L4.71274 6.25901C4.33493 6.10039 3.89802 6.2447 3.68902 6.59715C3.47165 6.96374 3.57102 7.43571 3.91775 7.68353L4.46376 8.07377C5.0254 8.47518 5.23003 9.19856 5.14879 9.88409C5.10052 10.2914 5.09996 10.7023 5.14713 11.1086C5.22727 11.7987 5.02275 12.5275 4.45782 12.932L3.90806 13.3256C3.56108 13.574 3.46179 14.0465 3.67944 14.4136C3.88836 14.7659 4.32471 14.9107 4.70283 14.7533L5.37992 14.4714C6.03315 14.1994 6.77369 14.391 7.34826 14.804C7.66518 15.0318 8.00828 15.2273 8.37226 15.3846C9.0091 15.6598 9.54282 16.1868 9.64248 16.8733L9.73657 17.5216C9.79918 17.9529 10.1689 18.2729 10.6048 18.2729C11.0404 18.2729 11.4101 17.9532 11.4729 17.5221L11.5674 16.8734C11.6668 16.1915 12.1941 15.6665 12.8263 15.3922C13.1943 15.2326 13.541 15.0347 13.8611 14.8043C14.4353 14.3908 15.176 14.1994 15.8292 14.4714L16.5073 14.7537C16.8849 14.9109 17.3205 14.7663 17.5291 14.4146C17.7469 14.0472 17.6468 13.5743 17.2988 13.3268L16.7499 12.9363C16.1859 12.5351 15.9798 11.8097 16.0608 11.1223C16.1092 10.7109 16.1091 10.2954 16.0603 9.8841C15.9791 9.19856 16.1838 8.47518 16.7454 8.07377L17.2914 7.68353C17.6381 7.43571 17.7375 6.96374 17.5201 6.59715C17.3111 6.2447 16.8742 6.10039 16.4964 6.25901L15.8339 6.53718C15.1849 6.80964 14.4476 6.61783 13.877 6.20578C13.5536 5.97217 13.2022 5.77261 12.8289 5.61291C12.1907 5.33986 11.6562 4.81294 11.5565 4.12596L11.4612 3.46885C11.3994 3.0432 11.0345 2.72745 10.6044 2.72745Z"
        fill="white" />
</svg>