<svg width="24" height="18" viewBox="0 0 24 18" fill="none" xmlns="http://www.w3.org/2000/svg">
    <path d="M18.5138 7.8967C20.0356 7.7007 21.2072 6.5047 21.2105 5.0557C21.2105 3.6277 20.0749 2.4437 18.5858 2.2197"
        stroke="#A3A3A3" stroke-width="1.4" stroke-linecap="round" stroke-linejoin="round" />
    <path
        d="M20.522 11.2503C21.9958 11.4523 23.0245 11.9253 23.0245 12.9003C23.0245 13.5713 22.5402 14.0073 21.7569 14.2813"
        stroke="#A3A3A3" stroke-width="1.4" stroke-linecap="round" stroke-linejoin="round" />
    <path fill-rule="evenodd" clip-rule="evenodd"
        d="M11.9673 11.6638C8.4611 11.6638 5.46655 12.1508 5.46655 14.0958C5.46655 16.0398 8.44255 16.5408 11.9673 16.5408C15.4735 16.5408 18.4669 16.0588 18.4669 14.1128C18.4669 12.1668 15.492 11.6638 11.9673 11.6638Z"
        stroke="#A3A3A3" stroke-width="1.4" stroke-linecap="round" stroke-linejoin="round" />
    <path fill-rule="evenodd" clip-rule="evenodd"
        d="M11.9672 8.88789C14.268 8.88789 16.1334 7.17889 16.1334 5.06889C16.1334 2.95989 14.268 1.24989 11.9672 1.24989C9.66651 1.24989 7.80106 2.95989 7.80106 5.06889C7.79233 7.17089 9.6436 8.88089 11.9367 8.88789H11.9672Z"
        stroke="#A3A3A3" stroke-width="1.4" stroke-linecap="round" stroke-linejoin="round" />
    <path d="M5.41975 7.8967C3.89684 7.7007 2.7263 6.5047 2.72302 5.0557C2.72302 3.6277 3.85866 2.4437 5.34775 2.2197"
        stroke="#A3A3A3" stroke-width="1.4" stroke-linecap="round" stroke-linejoin="round" />
    <path
        d="M3.41148 11.2503C1.93766 11.4523 0.908936 11.9253 0.908936 12.9003C0.908936 13.5713 1.3933 14.0073 2.17657 14.2813"
        stroke="#A3A3A3" stroke-width="1.4" stroke-linecap="round" stroke-linejoin="round" />
</svg>